<svg xmlns="http://www.w3.org/2000/svg" version="1.1" xmlns:xlink="http://www.w3.org/1999/xlink" xmlns:svgjs="http://svgjs.dev/svgjs" viewBox="0 0 1920 1080" style="overflow: hidden; height: 85vh;" class="overflow-hidden rounded-md drop-shadow-lg transition duration-300"><rect width="1920" height="1080" fill="#b1a2f0"/><g clip-path="url(&quot;#SvgjsClipPath2712&quot;)"><g transform="matrix(1.15,0,0,1.15,-140.08018112182617,-81)"><path d="M0,-1080C5.012953800969804,-1014.5393691838262,21.093112310037704,-815.8582644300488,30.077722805818823,-687.2362151029578C39.06233330159994,-558.6141657758667,65.18411294373378,-455.700797050524,53.907662974686716,-308.2677040374535C42.63121300563966,-160.83461102438295,-21.241306369534616,50.8137401805584,-37.58097700846354,197.36234297546548C-53.92064764739247,343.91094577037256,-57.3739633453982,445.22605790616217,-44.13036085888685,571.0239127319891C-30.886758372375503,696.821767557816,31.137873149742298,825.3734149387999,41.88063791060456,952.1494719304269C52.62340267146683,1078.925528922054,21.856837837332673,1197.1487985698232,20.326227706286744,1331.6802546817507C18.795617575240815,1466.2117107936783,36.084681742043436,1621.2849177156168,32.69697712432898,1759.3382086019917C29.309272506614523,1897.3914994883667,5.4494961873881635,2093.223034766999,0,2160L 1920 2160 L 1920 -1080 Z" fill="url(&quot;#SvgjsLinearGradient2706&quot;)"/><path d="M320,-1080C316.5098703318062,-996.5452238510964,297.5045747583801,-758.0698555139853,299.05922199083733,-579.271343106578C300.61386922329456,-400.4728306991707,315.9973770843867,-182.97452023631757,329.32788339474325,-7.208925555556256C342.6583897050998,168.55666912520508,382.249285059734,290.4845285800467,379.0422598529768,475.32222497799C375.83523464621965,660.1599213759333,313.3333770851679,908.6600578704607,310.08573215420006,1101.8172528321033C306.8380872232322,1294.9744477937459,357.9040122928698,1457.9016035531963,359.55639026716983,1634.2653947478457C361.20876824146984,1810.629185942495,326.592731711195,2072.3775657913075,320,2160L 1920 2160 L 1920 -1080 Z" fill="url(&quot;#SvgjsLinearGradient2707&quot;)"/><path d="M640,-1080C642.7035740866677,-935.1474680100436,654.1331793606294,-469.6192966615788,656.2214445200061,-210.88480806026152C658.3097096793829,47.84968054105579,654.9617852902222,202.9058707589494,652.5295909562604,472.4069316079038C650.0973966222987,741.9079924568582,643.7165436756119,1124.8560456347823,641.6282785162351,1406.121557033465C639.5400133568584,1687.3870684321478,640.2713797527058,2034.3535928389108,640,2160L 1920 2160 L 1920 -1080 Z" fill="url(&quot;#SvgjsLinearGradient2708&quot;)"/><path d="M960,-1080C956.3951819269697,-951.0180087514655,929.9877381498186,-580.07058414673,938.3710915618182,-306.1080525087925C946.7544449738177,-32.14552087085514,1015.8644372490436,282.7764846328787,1010.3001204719972,563.7751898276243C1004.7358036949507,844.77389502237,913.3685443115389,1113.8467102976188,904.9851908995394,1379.8841786596813C896.6018374875398,1645.9216470217439,950.8308651499233,2029.9806964432803,960,2160L 1920 2160 L 1920 -1080 Z" fill="url(&quot;#SvgjsLinearGradient2709&quot;)"/><path d="M1280,-1080C1282.423871721138,-968.6385694696423,1283.2024068125224,-636.6374744684721,1294.5432303268287,-411.8314168178542C1305.884053841135,-187.0253591672363,1346.205649843948,54.05434942312499,1348.044941085838,268.8363459037074C1349.884232327728,483.6183423842898,1321.7443100046814,676.9871841649212,1305.578977778168,876.8605620656405C1289.4136455516548,1076.7339399663597,1255.3161106897865,1254.2200403189624,1251.0529477267585,1468.0766133080224C1246.7897847637305,1681.9331862970823,1275.1754912877932,2044.679435551337,1280,2160L 1920 2160 L 1920 -1080 Z" fill="url(&quot;#SvgjsLinearGradient2710&quot;)"/><path d="M1600,-1080C1610.6483957047349,-1006.4656448089861,1675.0594845277576,-794.717627189099,1663.8903742284099,-638.7938688539168C1652.7212639290622,-482.8701105187347,1533.6012546276881,-299.0202520336105,1532.9853382039134,-144.45744998890717C1532.3694217801387,10.105352055796175,1642.5050910539587,135.7503233932102,1660.1948756857614,288.58294341430326C1677.884660317564,441.4155634353963,1644.159829508399,606.6311525490866,1639.12404599473,772.5382701376512C1634.088262481061,938.4453877262159,1641.9495652651935,1129.966758296895,1629.9801746037476,1284.0256489456913C1618.0107839423017,1438.0845395944875,1572.3043977933453,1550.89588885471,1567.307702026054,1696.8916140304282C1562.3110062587625,1842.8873392061464,1594.551283671009,2082.8152690050715,1600,2160L 1920 2160 L 1920 -1080 Z" fill="url(&quot;#SvgjsLinearGradient2711&quot;)"/></g></g><defs><linearGradient x1="0.1" y1="0" x2="0" y2="1" id="SvgjsLinearGradient2706"><stop stop-color="#b1a2f0" offset="0"/><stop stop-color="#a4a2f0" offset="0"/></linearGradient><linearGradient x1="0.1" y1="0" x2="0" y2="1" id="SvgjsLinearGradient2707"><stop stop-color="#a2e1f0" offset="0"/><stop stop-color="#a2eef0" offset="0.16666666666666666"/></linearGradient><linearGradient x1="0.1" y1="0" x2="0" y2="1" id="SvgjsLinearGradient2708"><stop stop-color="#a2f0b1" offset="0"/><stop stop-color="#a2f0a4" offset="0.3333333333333333"/></linearGradient><linearGradient x1="0.1" y1="0" x2="0" y2="1" id="SvgjsLinearGradient2709"><stop stop-color="#e1f0a2" offset="0"/><stop stop-color="#eef0a2" offset="0.5"/></linearGradient><linearGradient x1="0.1" y1="0" x2="0" y2="1" id="SvgjsLinearGradient2710"><stop stop-color="#f0b1a2" offset="0"/><stop stop-color="#f0a4a2" offset="0.6666666666666666"/></linearGradient><linearGradient x1="0.1" y1="0" x2="0" y2="1" id="SvgjsLinearGradient2711"><stop stop-color="#f0a2e1" offset="0"/><stop stop-color="#f0a2ee" offset="0.8333333333333334"/></linearGradient><clipPath id="SvgjsClipPath2712"><rect width="1920" height="1080"/></clipPath></defs></svg>